<svg width="94" height="47" viewBox="0 0 94 47" fill="none" xmlns="http://www.w3.org/2000/svg">
<g filter="url(#filter0_d_4003_2)">
<path d="M40.05 44H11.91C11.19 44 10.41 43.92 9.57 43.76C8.75 43.58 7.93 43.31 7.11 42.95C6.31 42.59 5.54 42.13 4.8 41.57C4.06 40.99 3.4 40.3 2.82 39.5C2.26 38.68 1.81 37.74 1.47 36.68C1.13 35.6 0.96 34.39 0.96 33.05V11.93C0.96 11.21 1.04 10.44 1.2 9.62C1.38 8.78 1.65 7.96 2.01 7.16C2.37 6.34 2.84 5.56 3.42 4.82C4 4.08 4.69 3.43 5.49 2.87C6.31 2.29 7.25 1.83 8.31 1.49C9.37 1.15 10.57 0.979998 11.91 0.979998H40.05V8.78H11.91C10.89 8.78 10.11 9.05 9.57 9.59C9.03 10.13 8.76 10.93 8.76 11.99V33.05C8.76 34.05 9.03 34.83 9.57 35.39C10.13 35.93 10.91 36.2 11.91 36.2H40.05V44ZM90.3 18.98C90.3 20.76 90.08 22.35 89.64 23.75C89.2 25.15 88.6 26.39 87.84 27.47C87.1 28.53 86.24 29.44 85.26 30.2C84.28 30.96 83.25 31.58 82.17 32.06C81.11 32.54 80.03 32.89 78.93 33.11C77.85 33.33 76.83 33.44 75.87 33.44H58.23V25.64H75.87C76.87 25.56 77.77 25.36 78.57 25.04C79.39 24.7 80.09 24.25 80.67 23.69C81.25 23.13 81.7 22.46 82.02 21.68C82.34 20.88 82.5 19.98 82.5 18.98V15.44C82.4 14.46 82.19 13.56 81.87 12.74C81.55 11.92 81.11 11.22 80.55 10.64C80.01 10.06 79.35 9.61 78.57 9.29C77.79 8.95 76.89 8.78 75.87 8.78H58.29C57.25 8.78 56.46 9.05 55.92 9.59C55.38 10.13 55.11 10.91 55.11 11.93V44H47.31V11.93C47.31 9.93 47.67 8.23 48.39 6.83C49.13 5.43 50.04 4.3 51.12 3.44C52.22 2.58 53.41 1.96 54.69 1.58C55.97 1.18 57.15 0.979998 58.23 0.979998H75.87C77.63 0.979998 79.21 1.21 80.61 1.67C82.01 2.11 83.24 2.71 84.3 3.47C85.38 4.21 86.29 5.07 87.03 6.05C87.79 7.03 88.41 8.06 88.89 9.14C89.39 10.2 89.75 11.28 89.97 12.38C90.19 13.46 90.3 14.48 90.3 15.44V18.98Z" fill="url(#paint0_radial_4003_2)"/>
</g>
<defs>
<filter id="filter0_d_4003_2" x="-3.91006e-05" y="0.0200109" width="93.1801" height="46.86" filterUnits="userSpaceOnUse" color-interpolation-filters="sRGB">
<feFlood flood-opacity="0" result="BackgroundImageFix"/>
<feColorMatrix in="SourceAlpha" type="matrix" values="0 0 0 0 0 0 0 0 0 0 0 0 0 0 0 0 0 0 127 0" result="hardAlpha"/>
<feOffset dx="0.96" dy="0.96"/>
<feGaussianBlur stdDeviation="0.96"/>
<feComposite in2="hardAlpha" operator="out"/>
<feColorMatrix type="matrix" values="0 0 0 0 0 0 0 0 0 0 0 0 0 0 0 0 0 0 0.5 0"/>
<feBlend mode="normal" in2="BackgroundImageFix" result="effect1_dropShadow_4003_2"/>
<feBlend mode="normal" in="SourceGraphic" in2="effect1_dropShadow_4003_2" result="shape"/>
</filter>
<radialGradient id="paint0_radial_4003_2" cx="0" cy="0" r="1" gradientUnits="userSpaceOnUse" gradientTransform="translate(45 22) rotate(90) scale(39 48)">
<stop stop-color="#0029FF"/>
<stop offset="1" stop-color="#001899"/>
</radialGradient>
</defs>
</svg>
